<?xml version="1.0" encoding="UTF-8" standalone="no"?><!DOCTYPE svg PUBLIC "-//W3C//DTD SVG 1.1//EN" "http://www.w3.org/Graphics/SVG/1.1/DTD/svg11.dtd"><svg width="100%" height="100%" viewBox="0 0 539 539" version="1.1" xmlns="http://www.w3.org/2000/svg" xmlns:xlink="http://www.w3.org/1999/xlink" xml:space="preserve" xmlns:serif="http://www.serif.com/" style="fill-rule:evenodd;clip-rule:evenodd;stroke-linecap:round;stroke-linejoin:round;stroke-miterlimit:1.5;"><rect x="13.506" y="22.567" width="511.54" height="496.598" style="fill:#fff;stroke:#000;stroke-width:3px;"/><rect x="13.489" y="510.698" width="511.269" height="9.111" style="fill:#999;stroke:#000;stroke-width:3px;"/><rect x="13.489" y="22.698" width="511.269" height="9.111" style="fill:#999;stroke:#000;stroke-width:3px;"/><path d="M18.437,267.554l501.547,-0" style="fill:none;stroke:#c00;stroke-width:7.94px;stroke-linecap:square;"/><path d="M18.437,207.554l501.547,-0" style="fill:none;stroke:#c00;stroke-width:7.94px;stroke-linecap:square;"/><path d="M18.437,147.554l501.547,-0" style="fill:none;stroke:#c00;stroke-width:7.94px;stroke-linecap:square;"/><path d="M18.437,87.554l501.547,-0" style="fill:none;stroke:#c00;stroke-width:7.94px;stroke-linecap:square;"/><path d="M18.437,327.554l501.547,-0" style="fill:none;stroke:#c00;stroke-width:7.94px;stroke-linecap:square;"/><path d="M18.437,387.554l501.547,-0" style="fill:none;stroke:#c00;stroke-width:7.94px;stroke-linecap:square;"/><path d="M18.437,450.554l501.547,-0" style="fill:none;stroke:#c00;stroke-width:7.94px;stroke-linecap:square;"/><g><path d="M87.832,192.216l0,-43.661l160.758,0l-0,34.126c-13.271,13.048 -26.765,31.783 -40.482,56.206c-13.717,24.424 -24.172,50.38 -31.366,77.87c-7.193,27.49 -10.733,52.052 -10.622,73.688l-45.333,-0c0.78,-33.903 7.778,-68.474 20.994,-103.715c13.215,-35.241 30.863,-66.745 52.944,-94.514l-106.893,-0Z" style="fill:#c00;fill-rule:nonzero;"/><path d="M265.82,390.445l64.069,-91.503l-61.393,-86.15l57.378,-0l31.449,48.846l33.122,-48.846l55.202,-0l-60.221,84.142l65.742,93.511l-57.712,-0l-36.133,-55.036l-36.468,55.036l-55.035,-0Z" style="fill:#c00;fill-rule:nonzero;"/></g></svg>