<?xml version="1.0" encoding="UTF-8" standalone="no"?><!DOCTYPE svg PUBLIC "-//W3C//DTD SVG 1.1//EN" "http://www.w3.org/Graphics/SVG/1.1/DTD/svg11.dtd"><svg width="100%" height="100%" viewBox="0 0 539 539" version="1.1" xmlns="http://www.w3.org/2000/svg" xmlns:xlink="http://www.w3.org/1999/xlink" xml:space="preserve" xmlns:serif="http://www.serif.com/" style="fill-rule:evenodd;clip-rule:evenodd;stroke-linecap:round;stroke-linejoin:round;stroke-miterlimit:1.5;"><rect x="13.506" y="22.567" width="511.54" height="496.598" style="fill:#fff;stroke:#000;stroke-width:3px;"/><rect x="13.489" y="510.698" width="511.269" height="9.111" style="fill:#999;stroke:#000;stroke-width:3px;"/><rect x="13.489" y="22.698" width="511.269" height="9.111" style="fill:#999;stroke:#000;stroke-width:3px;"/><path d="M15.437,447.554l508.973,-0" style="fill:none;stroke:#000;stroke-width:3px;"/><path d="M15.437,387.554l508.973,-0" style="fill:none;stroke:#000;stroke-width:3px;"/><path d="M15.437,327.554l508.973,-0" style="fill:none;stroke:#000;stroke-width:3px;stroke-linecap:butt;"/><path d="M15.437,271.554l508.973,-0" style="fill:none;stroke:#c00;stroke-width:20px;stroke-linecap:butt;"/><path d="M15.437,207.554l508.973,0" style="fill:none;stroke:#000;stroke-width:3px;stroke-linecap:butt;"/><path d="M15.437,147.554l508.973,0" style="fill:none;stroke:#000;stroke-width:3px;"/><path d="M15.437,87.554l508.973,0" style="fill:none;stroke:#000;stroke-width:3px;"/><g><path d="M203.721,389.187l-45.695,-0l-0,-172.212c-16.696,15.611 -36.373,27.157 -59.031,34.637l0,-41.467c11.926,-3.903 24.881,-11.302 38.866,-22.198c13.985,-10.895 23.58,-23.606 28.783,-38.134l37.077,0l0,239.374Z" style="fill:#c00;fill-rule:nonzero;"/><path d="M259.824,389.187l62.283,-88.952l-59.681,-83.748l55.778,-0l30.572,47.484l32.198,-47.484l53.664,-0l-58.542,81.796l63.909,90.904l-56.104,-0l-35.125,-53.502l-35.451,53.502l-53.501,-0Z" style="fill:#c00;fill-rule:nonzero;"/></g></svg>