<?xml version="1.0" encoding="UTF-8" standalone="no"?>
<!DOCTYPE svg PUBLIC "-//W3C//DTD SVG 1.1//EN" "http://www.w3.org/Graphics/SVG/1.1/DTD/svg11.dtd">
<svg width="100%" height="100%" viewBox="0 0 16 16" version="1.1" xmlns="http://www.w3.org/2000/svg" xmlns:xlink="http://www.w3.org/1999/xlink" xml:space="preserve" xmlns:serif="http://www.serif.com/" style="fill-rule:evenodd;clip-rule:evenodd;stroke-linecap:round;stroke-linejoin:round;stroke-miterlimit:1.5;">
    <g transform="matrix(1.31937,0,0,1.75498,-4.11598,-5.80341)">
        <g transform="matrix(0.998882,0,0,0.750946,1.73826,0.87819)">
            <rect x="2.406" y="4.257" width="10.094" height="10.094" style="fill:none;stroke:black;stroke-width:0.76px;"/>
        </g>
        <g transform="matrix(1.90704e-17,0.234139,-0.305846,1.40792e-17,9.31037,6.13218)">
            <path d="M4.5,3L11.5,3C11.774,3 12,3.226 12,3.5L12,6.5C12,8.42 10.42,10 8.5,10C8.498,10.434 8.49,10.845 8.46,11.22C8.419,11.734 8.334,12.223 8.143,12.644C7.949,13.089 7.606,13.453 7.173,13.672C6.725,13.9 6.169,14 5.5,14C4.502,14 3.89,14.33 3.526,14.718C3.197,15.065 3.01,15.522 3,16L2,16C2,15.384 2.232,14.633 2.797,14.032C3.374,13.42 4.261,13 5.5,13C6.081,13 6.462,12.912 6.718,12.781C6.959,12.658 7.118,12.481 7.232,12.231C7.353,11.965 7.425,11.61 7.462,11.141C7.489,10.801 7.497,10.423 7.499,10C5.579,9.999 4,8.42 4,6.5L4,3.5C4,3.226 4.226,3 4.5,3Z" style="fill-rule:nonzero;"/>
        </g>
        <g transform="matrix(0.757938,0,0,0.569807,3.11966,3.30682)">
            <path d="M10.39,8.467L14.155,8.467L14.155,8.017L10.39,8.017L10.39,7.791C10.39,7.727 10.337,7.674 10.273,7.674L10.155,7.674L10.155,7.439C10.155,7.375 10.103,7.322 10.038,7.322L9.686,7.322L9.686,6.97C9.686,6.906 9.633,6.853 9.569,6.853L7.926,6.853C7.862,6.853 7.809,6.906 7.809,6.97L7.809,9.552C7.809,9.616 7.862,9.669 7.926,9.669L9.569,9.669C9.633,9.669 9.686,9.616 9.686,9.552L9.686,9.2L10.038,9.2C10.103,9.2 10.155,9.147 10.155,9.082L10.155,8.848L10.273,8.848C10.337,8.848 10.39,8.795 10.39,8.73L10.39,8.467ZM8.454,9.082C8.486,9.082 8.513,9.109 8.513,9.141L8.513,9.258C8.513,9.29 8.486,9.317 8.454,9.317L8.102,9.317C8.07,9.317 8.043,9.29 8.043,9.258L8.043,9.141C8.043,9.109 8.07,9.082 8.102,9.082L8.454,9.082ZM8.513,8.672C8.513,8.639 8.486,8.613 8.454,8.613L8.102,8.613C8.07,8.613 8.043,8.639 8.043,8.672L8.043,8.789C8.043,8.821 8.07,8.848 8.102,8.848L8.454,8.848C8.486,8.848 8.513,8.821 8.513,8.789L8.513,8.672ZM8.454,8.144C8.486,8.144 8.513,8.17 8.513,8.202L8.513,8.32C8.513,8.352 8.486,8.378 8.454,8.378L8.102,8.378C8.07,8.378 8.043,8.352 8.043,8.32L8.043,8.202C8.043,8.17 8.07,8.144 8.102,8.144L8.454,8.144ZM8.513,7.733C8.513,7.701 8.486,7.674 8.454,7.674L8.102,7.674C8.07,7.674 8.043,7.7 8.043,7.733L8.043,7.85C8.043,7.882 8.07,7.909 8.102,7.909L8.454,7.909C8.486,7.909 8.513,7.882 8.513,7.85L8.513,7.733ZM8.513,7.263C8.513,7.231 8.486,7.205 8.454,7.205L8.102,7.205C8.07,7.205 8.043,7.231 8.043,7.263L8.043,7.381C8.043,7.413 8.07,7.439 8.102,7.439L8.454,7.439C8.486,7.439 8.513,7.413 8.513,7.381L8.513,7.263Z"/>
        </g>
    </g>
</svg>
