<?xml version="1.0" encoding="UTF-8" standalone="no"?>
<!DOCTYPE svg PUBLIC "-//W3C//DTD SVG 1.1//EN" "http://www.w3.org/Graphics/SVG/1.1/DTD/svg11.dtd">
<svg width="100%" height="100%" viewBox="0 0 16 16" version="1.1" xmlns="http://www.w3.org/2000/svg" xmlns:xlink="http://www.w3.org/1999/xlink" xml:space="preserve" xmlns:serif="http://www.serif.com/" style="fill-rule:evenodd;clip-rule:evenodd;stroke-linejoin:round;stroke-miterlimit:2;">
    <path d="M2,6C2,2.708 4.708,0 8,0C11.292,0 14,2.708 14,6C14,7.624 13.341,9.18 12.174,10.31C11.971,10.506 11.815,10.71 11.721,10.929L10.959,12.698C10.88,12.881 10.699,13 10.5,13C10.774,13 11,13.226 11,13.5C11,13.774 10.774,14 10.5,14C10.774,14 11,14.226 11,14.5C11,14.774 10.774,15 10.5,15L10.276,15.447C10.107,15.785 9.76,16 9.382,16L6.618,16C6.24,16 5.893,15.785 5.724,15.447L5.5,15C5.226,15 5,14.774 5,14.5C5,14.226 5.226,14 5.5,14C5.226,14 5,13.774 5,13.5C5,13.226 5.226,13 5.5,13C5.3,13 5.119,12.881 5.04,12.698L4.279,10.928C4.17,10.694 4.016,10.484 3.826,10.31C2.658,9.181 1.998,7.624 2,6ZM8.002,1L7.999,1C5.256,1 2.999,3.257 2.999,6C2.999,7.353 3.549,8.651 4.521,9.592C4.784,9.846 5.035,10.156 5.197,10.533L5.83,12L10.172,12L10.804,10.533C10.966,10.156 11.217,9.846 11.48,9.592C12.452,8.651 13.002,7.353 13.002,6C13.002,3.257 10.745,1 8.002,1ZM3.625,7.958L3.625,4.379L4.099,4.379L4.099,7.535L5.861,7.535L5.861,7.958L3.625,7.958ZM6.435,7.958L6.435,4.379L9.023,4.379L9.023,4.801L6.909,4.801L6.909,5.897L8.889,5.897L8.889,6.317L6.909,6.317L6.909,7.535L9.106,7.535L9.106,7.958L6.435,7.958ZM9.76,7.958L9.76,4.379L10.993,4.379C11.272,4.379 11.484,4.396 11.63,4.43C11.836,4.477 12.011,4.562 12.155,4.686C12.344,4.846 12.485,5.05 12.579,5.298C12.673,5.546 12.719,5.83 12.719,6.149C12.719,6.42 12.688,6.661 12.624,6.871C12.561,7.081 12.479,7.255 12.38,7.392C12.281,7.53 12.172,7.638 12.054,7.717C11.936,7.796 11.794,7.856 11.627,7.897C11.46,7.937 11.268,7.958 11.052,7.958L9.76,7.958ZM10.234,7.535L10.998,7.535C11.234,7.535 11.419,7.513 11.554,7.469C11.688,7.425 11.795,7.364 11.875,7.284C11.987,7.171 12.074,7.021 12.137,6.831C12.2,6.641 12.231,6.411 12.231,6.141C12.231,5.767 12.17,5.479 12.047,5.278C11.924,5.077 11.775,4.942 11.599,4.874C11.472,4.825 11.268,4.801 10.986,4.801L10.234,4.801L10.234,7.535Z" style="fill-rule:nonzero;"/>
</svg>
