<?xml version="1.0" encoding="UTF-8" standalone="no"?>
<!DOCTYPE svg PUBLIC "-//W3C//DTD SVG 1.1//EN" "http://www.w3.org/Graphics/SVG/1.1/DTD/svg11.dtd">
<svg width="100%" height="100%" viewBox="0 0 50 50" version="1.1" xmlns="http://www.w3.org/2000/svg" xmlns:xlink="http://www.w3.org/1999/xlink" xml:space="preserve" xmlns:serif="http://www.serif.com/" style="fill-rule:evenodd;clip-rule:evenodd;stroke-linejoin:round;stroke-miterlimit:2;">
    <g transform="matrix(6.12323e-17,-1,1,6.12323e-17,-3.55271e-15,50)">
        <g transform="matrix(6.12323e-17,1,-1,6.12323e-17,49.9826,-0.2014)">
            <g transform="matrix(0.485514,0,0,0.529881,-66.4131,-44.646)">
                <ellipse cx="188" cy="124" rx="34" ry="35" style="fill:white;"/>
            </g>
            <g transform="matrix(3.15431,0,0,3.05333,-0.0330359,0.556194)">
                <path d="M2,6C2,6 2,6 2,6C2,2.708 4.708,-0 8,-0C11.292,-0 14,2.708 14,6C14,7.624 13.341,9.18 12.174,10.31C11.971,10.506 11.815,10.71 11.721,10.929L10.959,12.698C10.88,12.881 10.699,13 10.5,13C10.774,13 11,13.226 11,13.5C11,13.774 10.774,14 10.5,14C10.774,14 11,14.226 11,14.5C11,14.774 10.774,15 10.5,15L10.276,15.447C10.107,15.785 9.76,16 9.382,16L6.618,16C6.24,16 5.893,15.785 5.724,15.447L5.5,15C5.226,15 5,14.774 5,14.5C5,14.226 5.226,14 5.5,14C5.226,14 5,13.774 5,13.5C5,13.226 5.226,13 5.5,13C5.3,13 5.119,12.881 5.04,12.698L4.279,10.928C4.17,10.694 4.016,10.484 3.826,10.31C2.658,9.181 1.998,7.624 2,6Z" style="fill:white;fill-rule:nonzero;stroke:rgb(230,26,26);stroke-width:0.32px;"/>
            </g>
            <g transform="matrix(-1.64562,-2.03984e-16,-2.00691e-16,1.65871,81.5797,-31.3191)">
                <g transform="matrix(-0.0203158,-0.0126765,-0.0126765,0.0203158,42.1922,27.3273)">
                    <path d="M424,64L336,64L336,48C336,21.49 314.51,0 288,0L224,0C197.49,0 176,21.49 176,48L176,64L88,64C65.909,64 48,81.909 48,104L48,136C48,144.837 55.163,152 64,152L448,152C456.837,152 464,144.837 464,136L464,104C464,81.909 446.091,64 424,64ZM208,48C208,39.18 215.18,32 224,32L288,32C296.82,32 304,39.18 304,48L304,64L208,64L208,48Z" style="fill:rgb(230,26,26);fill-rule:nonzero;"/>
                </g>
                <g id="arrow-rl" transform="matrix(0.203288,0.0731189,0.103499,-0.287753,-63.2007,94.3231)">
                    <path d="M308.481,312.822C308.021,312.888 307.527,312.947 307,313C297.664,313.934 290,308.071 290,302C290,295.929 297.617,291 307,291L307.5,291C300.049,291 294,294.914 294,299.735C294,304.504 299.918,308.385 307.257,308.469L306,304L320.145,307.414L309.854,317.702L308.481,312.822Z" style="fill:rgb(230,26,26);"/>
                </g>
                <g transform="matrix(-0.0239463,0,0,0.0239463,40.3296,26.0576)">
                    <path d="M78.364,184C75.509,184 73.234,186.386 73.37,189.238L86.57,466.28C87.79,491.92 108.85,512 134.51,512L377.49,512C403.15,512 424.21,491.92 425.43,466.28L438.63,189.238C438.766,186.386 436.491,184 433.636,184L78.364,184ZM320,224C320,215.16 327.16,208 336,208C344.84,208 352,215.16 352,224L352,432C352,440.84 344.84,448 336,448C327.16,448 320,440.84 320,432L320,224ZM240,224C240,215.16 247.16,208 256,208C264.84,208 272,215.16 272,224L272,432C272,440.84 264.84,448 256,448C247.16,448 240,440.84 240,432L240,224ZM160,224C160,215.16 167.16,208 176,208C184.84,208 192,215.16 192,224L192,432C192,440.84 184.84,448 176,448C167.16,448 160,440.84 160,432L160,224Z" style="fill:rgb(230,26,26);fill-rule:nonzero;"/>
                </g>
            </g>
        </g>
        <g transform="matrix(1,0,0,0.961395,-0.300841,1.18329)">
            <rect x="7.968" y="18.29" width="1.05" height="13.429" style="fill:rgb(230,26,26);"/>
        </g>
        <g transform="matrix(1,0,0,0.957482,-3.30084,1.3074)">
            <rect x="7.968" y="18.29" width="1.05" height="13.429" style="fill:rgb(230,26,26);"/>
        </g>
    </g>
    <g transform="matrix(0.848648,0.685705,-0.417681,0.516934,12.3811,-5.93454)">
        <rect x="1.317" y="19.389" width="47.798" height="5.209" style="stroke:white;stroke-width:1.48px;stroke-linecap:round;stroke-miterlimit:1.5;"/>
    </g>
</svg>
